<svg width="24" height="24" viewBox="0 0 24 24" fill="none" xmlns="http://www.w3.org/2000/svg"> <g clip-path="url(#clip0_222_17)"> <path d="M22.08 -4.46989e-05H2.055C1.79689 -0.0121347 1.53893 0.0267907 1.29588 0.114526C1.05284 0.202261 0.829485 0.337065 0.638595 0.511215C0.44772 0.68538 0.293055 0.895485 0.18348 1.12948C0.0739053 1.3635 0.01155 1.61682 0 1.87496V21.945C0.01512 22.4851 0.23649 22.9992 0.618645 23.3812C1.0008 23.7634 1.51476 23.9848 2.055 24H22.08C22.6051 23.9766 23.1003 23.7483 23.4592 23.3641C23.8182 22.98 24.0123 22.4706 24 21.945V1.87496C24.0043 1.62371 23.9572 1.37424 23.8617 1.14183C23.7661 0.909435 23.6241 0.699 23.4442 0.523425C23.2645 0.347865 23.0508 0.210886 22.8162 0.120871C22.5816 0.0308557 22.3311 -0.0102897 22.08 -4.46989e-05ZM7.5 20.01H4.005V9.315H7.5V20.01ZM5.835 7.69495C5.59111 7.70346 5.3481 7.66143 5.12124 7.57152C4.89436 7.48161 4.68853 7.34576 4.51669 7.17249C4.34484 6.99923 4.21067 6.7923 4.12262 6.5647C4.03455 6.33711 3.99451 6.09376 4.005 5.84995C3.99421 5.60351 4.03506 5.35753 4.12492 5.12781C4.21479 4.89807 4.35168 4.68966 4.5268 4.51595C4.70194 4.34222 4.91145 4.20702 5.14189 4.11903C5.37235 4.03102 5.61865 3.99218 5.865 4.00496C6.10888 3.99647 6.3519 4.03848 6.57876 4.12839C6.80564 4.2183 7.01146 4.35416 7.1833 4.52742C7.35516 4.70069 7.48933 4.90761 7.57738 5.1352C7.66545 5.3628 7.70548 5.60614 7.695 5.84995C7.70578 6.0964 7.66494 6.34238 7.57507 6.5721C7.48521 6.80184 7.34832 7.01025 7.17319 7.18397C6.99805 7.3577 6.78855 7.49289 6.5581 7.58088C6.32764 7.66888 6.08134 7.70773 5.835 7.69495ZM20.01 20.01H16.5V14.16C16.5 12.765 16.005 11.805 14.76 11.805C14.3733 11.8083 13.9969 11.9311 13.6828 12.1567C13.3686 12.3823 13.1319 12.6996 13.005 13.065C12.9075 13.3389 12.8667 13.6297 12.885 13.92V20.01H9.435V9.315H12.885V10.815C13.1917 10.2514 13.6482 9.78375 14.2041 9.46335C14.76 9.1431 15.3936 8.98272 16.035 8.99996C18.3 8.99996 20.01 10.5 20.01 13.695V20.01Z" fill="currentColor"/> </g> </svg> 