<svg width="24" height="24" viewBox="0 0 24 24" fill="none" xmlns="http://www.w3.org/2000/svg"> <g clip-path="url(#clip0_197_9)"> <path d="M13.6421 8.97578C13.6421 7.7539 14.6327 6.76328 15.8538 6.76328C17.0749 6.76328 18.0655 7.75391 18.0655 8.975C18.0655 10.1969 17.0757 11.1867 15.8538 11.1867C15.8538 11.1867 15.8538 11.1867 15.853 11.1867C14.6319 11.1867 13.6421 10.1969 13.6421 8.97578C13.6421 8.97578 13.6413 8.97578 13.6413 8.975L13.6421 8.97578ZM18.7897 8.98047C18.7897 7.35469 17.4718 6.03672 15.846 6.03672C14.2202 6.03672 12.9022 7.35469 12.9022 8.98047C12.9022 10.6062 14.2202 11.9242 15.846 11.9242C17.471 11.9219 18.7874 10.6047 18.7897 8.98047ZM7.646 18.0625L6.20771 17.4672C6.61709 18.3094 7.46631 18.8797 8.44834 18.8797C9.47725 18.8797 10.3608 18.2539 10.7374 17.3617L10.7437 17.3453C10.8647 17.0625 10.9358 16.7328 10.9358 16.3875C10.9358 15.0148 9.82334 13.9023 8.45068 13.9023C8.13428 13.9023 7.83193 13.9617 7.55381 14.0687L7.571 14.0633L9.05771 14.6781C9.72334 14.9625 10.1819 15.6125 10.1819 16.3687C10.1819 17.3812 9.36084 18.2023 8.34834 18.2023C8.09521 18.2023 7.85459 18.1508 7.63506 18.0586L7.64678 18.0633L7.646 18.0625ZM11.9796 0.284374C5.84131 0.285155 0.806934 5.00781 0.309277 11.0172L0.306152 11.0594L6.58584 13.6547C7.10771 13.2937 7.75381 13.0789 8.45068 13.0789C8.45146 13.0789 8.45225 13.0789 8.45225 13.0789C8.51396 13.0789 8.57412 13.0828 8.63584 13.0852L11.4288 9.04141V8.98359C11.4312 6.54609 13.4077 4.57109 15.8452 4.57109C18.2843 4.57109 20.2616 6.54844 20.2616 8.9875C20.2616 11.4266 18.2843 13.4039 15.8452 13.4039H15.7429L11.7632 16.2461C11.7632 16.2969 11.7671 16.3484 11.7671 16.4016C11.7671 16.4023 11.7671 16.4031 11.7671 16.4039C11.7671 18.2336 10.2835 19.7172 8.45381 19.7172C6.85459 19.7172 5.51943 18.5836 5.20928 17.0766L5.20537 17.0555L0.709277 15.1937C2.14756 20.1508 6.64756 23.7133 11.9788 23.7133C18.4483 23.7133 23.6929 18.4687 23.6929 11.9992C23.6929 5.52969 18.4483 0.285156 11.9788 0.285156L11.9796 0.284374Z" fill="currentColor"/> </g> </svg>
